<svg width="24" height="25" viewBox="0 0 24 25" fill="none" xmlns="http://www.w3.org/2000/svg">
<g id="Bezier" clip-path="url(#clip0_104_110)">
<path id="Vector" fill-rule="evenodd" clip-rule="evenodd" d="M0 16.25C0 15.6533 0.237053 15.081 0.65901 14.659C1.08097 14.2371 1.65326 14 2.25 14H3.75C4.34674 14 4.91903 14.2371 5.34099 14.659C5.76295 15.081 6 15.6533 6 16.25V17.75C6 18.3467 5.76295 18.919 5.34099 19.341C4.91903 19.7629 4.34674 20 3.75 20H2.25C1.65326 20 1.08097 19.7629 0.65901 19.341C0.237053 18.919 0 18.3467 0 17.75L0 16.25ZM2.25 15.5C2.05109 15.5 1.86032 15.579 1.71967 15.7197C1.57902 15.8603 1.5 16.0511 1.5 16.25V17.75C1.5 17.9489 1.57902 18.1397 1.71967 18.2803C1.86032 18.421 2.05109 18.5 2.25 18.5H3.75C3.94891 18.5 4.13968 18.421 4.28033 18.2803C4.42098 18.1397 4.5 17.9489 4.5 17.75V16.25C4.5 16.0511 4.42098 15.8603 4.28033 15.7197C4.13968 15.579 3.94891 15.5 3.75 15.5H2.25ZM18 16.25C18 15.6533 18.2371 15.081 18.659 14.659C19.081 14.2371 19.6533 14 20.25 14H21.75C22.3467 14 22.919 14.2371 23.341 14.659C23.7629 15.081 24 15.6533 24 16.25V17.75C24 18.3467 23.7629 18.919 23.341 19.341C22.919 19.7629 22.3467 20 21.75 20H20.25C19.6533 20 19.081 19.7629 18.659 19.341C18.2371 18.919 18 18.3467 18 17.75V16.25ZM20.25 15.5C20.0511 15.5 19.8603 15.579 19.7197 15.7197C19.579 15.8603 19.5 16.0511 19.5 16.25V17.75C19.5 17.9489 19.579 18.1397 19.7197 18.2803C19.8603 18.421 20.0511 18.5 20.25 18.5H21.75C21.9489 18.5 22.1397 18.421 22.2803 18.2803C22.421 18.1397 22.5 17.9489 22.5 17.75V16.25C22.5 16.0511 22.421 15.8603 22.2803 15.7197C22.1397 15.579 21.9489 15.5 21.75 15.5H20.25ZM9 7.25C9 6.65326 9.23705 6.08097 9.65901 5.65901C10.081 5.23705 10.6533 5 11.25 5H12.75C13.3467 5 13.919 5.23705 14.341 5.65901C14.7629 6.08097 15 6.65326 15 7.25V8.75C15 9.34674 14.7629 9.91903 14.341 10.341C13.919 10.7629 13.3467 11 12.75 11H11.25C10.6533 11 10.081 10.7629 9.65901 10.341C9.23705 9.91903 9 9.34674 9 8.75V7.25ZM11.25 6.5C11.0511 6.5 10.8603 6.57902 10.7197 6.71967C10.579 6.86032 10.5 7.05109 10.5 7.25V8.75C10.5 8.94891 10.579 9.13968 10.7197 9.28033C10.8603 9.42098 11.0511 9.5 11.25 9.5H12.75C12.9489 9.5 13.1397 9.42098 13.2803 9.28033C13.421 9.13968 13.5 8.94891 13.5 8.75V7.25C13.5 7.05109 13.421 6.86032 13.2803 6.71967C13.1397 6.57902 12.9489 6.5 12.75 6.5H11.25Z" fill="#070707"/>
<path id="Vector_2" d="M9.00004 7.25H2.79904C2.63394 6.96404 2.37909 6.74054 2.07403 6.61418C1.76896 6.48782 1.43072 6.46565 1.11177 6.55111C0.792821 6.63657 0.510984 6.82489 0.30997 7.08686C0.108956 7.34882 0 7.6698 0 8C0 8.3302 0.108956 8.65118 0.30997 8.91314C0.510984 9.17511 0.792821 9.36343 1.11177 9.44889C1.43072 9.53435 1.76896 9.51218 2.07403 9.38582C2.37909 9.25946 2.63394 9.03596 2.79904 8.75H6.80104C4.86939 9.96952 3.42583 11.827 2.72104 14H3.75004C3.93454 14 4.11604 14.0225 4.28704 14.0645C4.7025 12.9769 5.34277 11.9892 6.16602 11.166C6.98926 10.3427 7.97695 9.70246 9.06454 9.287C9.02157 9.11124 8.99991 8.93094 9.00004 8.75V7.25ZM14.9355 9.287C14.9786 9.11124 15.0002 8.93094 15 8.75V7.25H21.201C21.3661 6.96404 21.621 6.74054 21.9261 6.61418C22.2311 6.48782 22.5694 6.46565 22.8883 6.55111C23.2073 6.63657 23.4891 6.82489 23.6901 7.08686C23.8911 7.34882 24.0001 7.6698 24.0001 8C24.0001 8.3302 23.8911 8.65118 23.6901 8.91314C23.4891 9.17511 23.2073 9.36343 22.8883 9.44889C22.5694 9.53435 22.2311 9.51218 21.9261 9.38582C21.621 9.25946 21.3661 9.03596 21.201 8.75H17.199C19.1307 9.96952 20.5742 11.827 21.279 14H20.25C20.0655 14 19.8855 14.0225 19.713 14.0645C19.2976 12.9769 18.6573 11.9892 17.8341 11.166C17.0108 10.3427 16.0231 9.70246 14.9355 9.287Z" fill="#070707"/>
</g>
<defs>
<clipPath id="clip0_104_110">
<rect width="24" height="24" fill="white" transform="translate(0 0.5)"/>
</clipPath>
</defs>
</svg>
