<svg width="25" height="25" viewBox="0 0 25 25" fill="none" xmlns="http://www.w3.org/2000/svg">
<path id="Vector" d="M12.3333 0.5C9.07675 0.5 8.66725 0.515 7.38775 0.572C6.10825 0.632 5.23675 0.833 4.47325 1.13C3.67239 1.43123 2.94699 1.90374 2.34775 2.5145C1.73737 3.11404 1.26491 3.83936 0.963252 4.64C0.666252 5.402 0.463752 6.275 0.405252 7.55C0.348252 8.8325 0.333252 9.2405 0.333252 12.5015C0.333252 15.7595 0.348252 16.1675 0.405252 17.447C0.465252 18.725 0.666252 19.5965 0.963252 20.36C1.27075 21.149 1.68025 21.818 2.34775 22.4855C3.01375 23.153 3.68275 23.564 4.47175 23.87C5.23675 24.167 6.10675 24.3695 7.38475 24.428C8.66575 24.485 9.07375 24.5 12.3333 24.5C15.5928 24.5 15.9993 24.485 17.2803 24.428C18.5568 24.368 19.4313 24.167 20.1948 23.87C20.9951 23.5686 21.72 23.0961 22.3188 22.4855C22.9863 21.818 23.3958 21.149 23.7033 20.36C23.9988 19.5965 24.2013 18.725 24.2613 17.447C24.3183 16.1675 24.3333 15.7595 24.3333 12.5C24.3333 9.2405 24.3183 8.8325 24.2613 7.5515C24.2013 6.275 23.9988 5.402 23.7033 4.64C23.4016 3.83934 22.9292 3.11401 22.3188 2.5145C21.7197 1.90351 20.9942 1.43097 20.1933 1.13C19.4283 0.833 18.5553 0.6305 17.2788 0.572C15.9978 0.515 15.5913 0.5 12.3303 0.5H12.3348H12.3333ZM11.2578 2.663H12.3348C15.5388 2.663 15.9183 2.6735 17.1828 2.732C18.3528 2.7845 18.9888 2.981 19.4118 3.1445C19.9713 3.362 20.3718 3.623 20.7918 4.043C21.2118 4.463 21.4713 4.862 21.6888 5.423C21.8538 5.8445 22.0488 6.4805 22.1013 7.6505C22.1598 8.915 22.1718 9.2945 22.1718 12.497C22.1718 15.6995 22.1598 16.0805 22.1013 17.345C22.0488 18.515 21.8523 19.1495 21.6888 19.5725C21.4964 20.0935 21.1893 20.5647 20.7903 20.951C20.3703 21.371 19.9713 21.6305 19.4103 21.848C18.9903 22.013 18.3543 22.208 17.1828 22.262C15.9183 22.319 15.5388 22.3325 12.3348 22.3325C9.13075 22.3325 8.74975 22.319 7.48525 22.262C6.31525 22.208 5.68075 22.013 5.25775 21.848C4.7365 21.6559 4.26494 21.3494 3.87775 20.951C3.47838 20.5641 3.17084 20.0925 2.97775 19.571C2.81425 19.1495 2.61775 18.5135 2.56525 17.3435C2.50825 16.079 2.49625 15.6995 2.49625 12.494C2.49625 9.29 2.50825 8.912 2.56525 7.6475C2.61925 6.4775 2.81425 5.8415 2.97925 5.4185C3.19675 4.859 3.45775 4.4585 3.87775 4.0385C4.29775 3.6185 4.69675 3.359 5.25775 3.1415C5.68075 2.9765 6.31525 2.7815 7.48525 2.7275C8.59225 2.6765 9.02125 2.6615 11.2578 2.66V2.663ZM18.7398 4.655C18.5506 4.655 18.3634 4.69225 18.1887 4.76461C18.014 4.83698 17.8552 4.94305 17.7215 5.07677C17.5878 5.21048 17.4817 5.36923 17.4094 5.54394C17.337 5.71864 17.2998 5.9059 17.2998 6.095C17.2998 6.2841 17.337 6.47135 17.4094 6.64606C17.4817 6.82077 17.5878 6.97952 17.7215 7.11323C17.8552 7.24695 18.014 7.35302 18.1887 7.42539C18.3634 7.49775 18.5506 7.535 18.7398 7.535C19.1217 7.535 19.4879 7.38329 19.758 7.11323C20.028 6.84318 20.1798 6.47691 20.1798 6.095C20.1798 5.71309 20.028 5.34682 19.758 5.07677C19.4879 4.80671 19.1217 4.655 18.7398 4.655ZM12.3348 6.338C11.5174 6.32525 10.7056 6.47523 9.94672 6.77921C9.18785 7.08319 8.49702 7.53511 7.91448 8.10863C7.33193 8.68216 6.8693 9.36585 6.55351 10.1199C6.23773 10.8739 6.0751 11.6833 6.0751 12.5007C6.0751 13.3182 6.23773 14.1276 6.55351 14.8816C6.8693 15.6356 7.33193 16.3193 7.91448 16.8929C8.49702 17.4664 9.18785 17.9183 9.94672 18.2223C10.7056 18.5263 11.5174 18.6763 12.3348 18.6635C13.9526 18.6383 15.4956 17.9779 16.6307 16.8249C17.7659 15.6719 18.4021 14.1188 18.4021 12.5007C18.4021 10.8827 17.7659 9.32962 16.6307 8.17662C15.4956 7.02363 13.9526 6.36324 12.3348 6.338ZM12.3348 8.4995C13.3958 8.4995 14.4133 8.92098 15.1635 9.67122C15.9138 10.4215 16.3353 11.439 16.3353 12.5C16.3353 13.561 15.9138 14.5785 15.1635 15.3288C14.4133 16.079 13.3958 16.5005 12.3348 16.5005C11.2738 16.5005 10.2562 16.079 9.50597 15.3288C8.75573 14.5785 8.33425 13.561 8.33425 12.5C8.33425 11.439 8.75573 10.4215 9.50597 9.67122C10.2562 8.92098 11.2738 8.4995 12.3348 8.4995Z" fill="black"/>
</svg>
