<svg width="25" height="25" viewBox="0 0 25 25" fill="none" xmlns="http://www.w3.org/2000/svg">
<path id="Vector" d="M0.333008 2.219C0.333008 1.2695 1.12201 0.5 2.09551 0.5H22.5705C23.544 0.5 24.333 1.2695 24.333 2.219V22.781C24.333 23.7305 23.544 24.5 22.5705 24.5H2.09551C1.12201 24.5 0.333008 23.7305 0.333008 22.781V2.219ZM7.74751 20.591V9.7535H4.14601V20.591H7.74751ZM5.94751 8.273C7.20301 8.273 7.98451 7.442 7.98451 6.401C7.96201 5.3375 7.20451 4.529 5.97151 4.529C4.73851 4.529 3.93301 5.339 3.93301 6.401C3.93301 7.442 4.71451 8.273 5.92351 8.273H5.94751ZM13.3095 20.591V14.5385C13.3095 14.2145 13.3335 13.8905 13.4295 13.6595C13.689 13.013 14.2815 12.3425 15.2775 12.3425C16.581 12.3425 17.1015 13.3355 17.1015 14.7935V20.591H20.703V14.375C20.703 11.045 18.927 9.497 16.557 9.497C14.646 9.497 13.7895 10.547 13.3095 11.2865V11.324H13.2855C13.2935 11.3115 13.3015 11.299 13.3095 11.2865V9.7535H9.70951C9.75451 10.7705 9.70951 20.591 9.70951 20.591H13.3095Z" fill="black"/>
</svg>
