<svg width="24" height="25" viewBox="0 0 24 25" fill="none" xmlns="http://www.w3.org/2000/svg">
<g id="scan-text">
<path id="Vector" d="M3 7.5V5.5C3 4.96957 3.21071 4.46086 3.58579 4.08579C3.96086 3.71071 4.46957 3.5 5 3.5H7" stroke="#4E4E4E" stroke-width="2" stroke-linecap="round" stroke-linejoin="round"/>
<path id="Vector_2" d="M17 3.5H19C19.5304 3.5 20.0391 3.71071 20.4142 4.08579C20.7893 4.46086 21 4.96957 21 5.5V7.5" stroke="#4E4E4E" stroke-width="2" stroke-linecap="round" stroke-linejoin="round"/>
<path id="Vector_3" d="M21 17.5V19.5C21 20.0304 20.7893 20.5391 20.4142 20.9142C20.0391 21.2893 19.5304 21.5 19 21.5H17" stroke="#4E4E4E" stroke-width="2" stroke-linecap="round" stroke-linejoin="round"/>
<path id="Vector_4" d="M7 21.5H5C4.46957 21.5 3.96086 21.2893 3.58579 20.9142C3.21071 20.5391 3 20.0304 3 19.5V17.5" stroke="#4E4E4E" stroke-width="2" stroke-linecap="round" stroke-linejoin="round"/>
<path id="Vector_5" d="M7 8.5H15" stroke="#4E4E4E" stroke-width="2" stroke-linecap="round" stroke-linejoin="round"/>
<path id="Vector_6" d="M7 12.5H17" stroke="#4E4E4E" stroke-width="2" stroke-linecap="round" stroke-linejoin="round"/>
<path id="Vector_7" d="M7 16.5H13" stroke="#4E4E4E" stroke-width="2" stroke-linecap="round" stroke-linejoin="round"/>
</g>
</svg>
