<svg width="25" height="25" viewBox="0 0 25 25" fill="none" xmlns="http://www.w3.org/2000/svg">
<g id="Twitter" clip-path="url(#clip0_346_191)">
<path id="Vector" d="M7.87225 23.0001C16.9293 23.0001 21.8838 15.4956 21.8838 8.99906C21.8838 8.78906 21.8838 8.57606 21.8748 8.36606C22.8393 7.66779 23.6718 6.80329 24.3333 5.81306C23.4322 6.21034 22.4774 6.47217 21.4998 6.59006C22.5296 5.97452 23.3008 5.00602 23.6703 3.86456C22.7027 4.43775 21.6438 4.84012 20.5398 5.05406C19.7975 4.2636 18.8154 3.73994 17.7454 3.5642C16.6754 3.38846 15.5773 3.57045 14.6213 4.08197C13.6652 4.59349 12.9045 5.40601 12.4569 6.39365C12.0094 7.3813 11.9 8.48896 12.1458 9.54506C10.1879 9.44689 8.27248 8.93826 6.52382 8.05218C4.77516 7.16609 3.23228 5.92233 1.99525 4.40156C1.36726 5.48619 1.17561 6.76916 1.45922 7.98996C1.74283 9.21076 2.48043 10.2779 3.52225 10.9746C2.74156 10.948 1.97803 10.7384 1.29325 10.3626V10.4301C1.2946 11.5663 1.68821 12.6672 2.40756 13.5467C3.12691 14.4262 4.12787 15.0304 5.24125 15.2571C4.81865 15.3735 4.3821 15.4315 3.94375 15.4296C3.63473 15.4305 3.32632 15.4019 3.02275 15.3441C3.33743 16.3221 3.95016 17.1773 4.77512 17.7898C5.60008 18.4022 6.59595 18.7413 7.62325 18.7596C5.87808 20.1303 3.72235 20.8737 1.50325 20.8701C1.11223 20.8717 0.721487 20.8492 0.333252 20.8026C2.58552 22.2385 5.2012 23.0009 7.87225 23.0001Z" fill="black"/>
</g>
<defs>
<clipPath id="clip0_346_191">
<rect width="24" height="24" fill="white" transform="translate(0.333252 0.5)"/>
</clipPath>
</defs>
</svg>
